<?xml version="1.0" encoding="UTF-8"?>
<svg width="50px" height="50px" viewBox="0 0 50 50" version="1.1" xmlns="http://www.w3.org/2000/svg" xmlns:xlink="http://www.w3.org/1999/xlink">
    <!-- Generator: Sketch 47.1 (45422) - http://www.bohemiancoding.com/sketch -->
    <title>Group 11</title>
    <desc>Created with Sketch.</desc>
    <defs>
        <path d="M50,41.0102699 C50,35.6906297 48.3636364,27 41,27 C33.6363636,27 32,35.6906297 32,41.0102699 C32,46.32991 50,46.32991 50,41.0102699 Z" id="path-1"></path>
        <circle id="path-2" cx="41" cy="26" r="6"></circle>
        <path d="M18,41.0102699 C18,35.6906297 16.3636364,27 9,27 C1.63636364,27 0,35.6906297 0,41.0102699 C0,46.32991 18,46.32991 18,41.0102699 Z" id="path-3"></path>
        <circle id="path-4" cx="9" cy="26" r="6"></circle>
    </defs>
    <g id="Page-1" stroke="none" stroke-width="1" fill="none" fill-rule="evenodd">
        <g id="buy-crypto-1440-copy-7" transform="translate(-287.000000, -742.000000)">
            <g id="Group-15-Copy-4" transform="translate(287.000000, 734.000000)">
                <g id="Group-11" transform="translate(0.000000, 8.000000)">
                    <path d="M50,41.0102699 C50,35.6906297 48.3636364,27 41,27 C33.6363636,27 32,35.6906297 32,41.0102699 C32,46.32991 50,46.32991 50,41.0102699 Z" id="Oval-3-Copy-5" fill="#FFFFFF"></path>
                    <path d="M18,41.0102699 C18,35.6906297 16.3636364,27 9,27 C1.63636364,27 0,35.6906297 0,41.0102699 C0,46.32991 18,46.32991 18,41.0102699 Z" id="Oval-3-Copy-5" fill="#FFFFFF"></path>
                    <g id="Oval-3-Copy-5">
                        <use fill="#FFFFFF" fill-rule="evenodd" xlink:href="#path-1"></use>
                        <path stroke="#000000" stroke-width="2" d="M49,41.0102699 C49,33.57746 46.3867162,28 41,28 C35.6132838,28 33,33.57746 33,41.0102699 C33,44.9965767 49,44.9965767 49,41.0102699 Z"></path>
                    </g>
                    <circle id="Oval-6" fill="#FFFFFF" cx="9" cy="26" r="5"></circle>
                    <g id="Oval-3-Copy-6">
                        <use fill="#FFFFFF" fill-rule="evenodd" xlink:href="#path-2"></use>
                        <circle stroke="#000000" stroke-width="2" cx="41" cy="26" r="5"></circle>
                    </g>
                    <g id="Oval-3-Copy-5">
                        <use fill="#FFFFFF" fill-rule="evenodd" xlink:href="#path-3"></use>
                        <path stroke="#000000" stroke-width="2" d="M17,41.0102699 C17,33.57746 14.3867162,28 9,28 C3.61328379,28 1,33.57746 1,41.0102699 C1,44.9965767 17,44.9965767 17,41.0102699 Z"></path>
                    </g>
                    <g id="Oval-3-Copy-6">
                        <use fill="#FFFFFF" fill-rule="evenodd" xlink:href="#path-4"></use>
                        <circle stroke="#000000" stroke-width="2" cx="9" cy="26" r="5"></circle>
                    </g>
                    <path d="M36,45 C36,38.9248678 34,29 25,29 C16,29 14,38.9248678 14,45 C14,51.0751322 36,51.0751322 36,45 Z" id="Oval-3-Copy" fill="#DBE6FF"></path>
                    <path d="M34,45 C34,36.919207 31.0318193,31 25,31 C18.9681807,31 16,36.919207 16,45 C16,45.3961607 16.6231966,45.986187 18.1285286,46.5404349 C19.8905058,47.189177 22.3835959,47.5563492 25,47.5563492 C27.6164041,47.5563492 30.1094942,47.189177 31.8714714,46.5404349 C33.3768034,45.986187 34,45.3961607 34,45 Z M36,45 C36,51.0751322 14,51.0751322 14,45 C14,38.9248678 16,29 25,29 C34,29 36,38.9248678 36,45 Z" id="Oval-3-Copy" fill="#000000" fill-rule="nonzero"></path>
                    <circle id="Oval-5" fill="#FFFFFF" cx="25" cy="27" r="6"></circle>
                    <path d="M25,32 C27.7614237,32 30,29.7614237 30,27 C30,24.2385763 27.7614237,22 25,22 C22.2385763,22 20,24.2385763 20,27 C20,29.7614237 22.2385763,32 25,32 Z M25,34 C21.1340068,34 18,30.8659932 18,27 C18,23.1340068 21.1340068,20 25,20 C28.8659932,20 32,23.1340068 32,27 C32,30.8659932 28.8659932,34 25,34 Z" id="Oval-3" fill="#000000" fill-rule="nonzero"></path>
                    <path d="M25,18 C20.0294373,18 16,13.9705627 16,9 C16,4.02943725 20.0294373,0 25,0 C29.9705627,0 34,4.02943725 34,9 C34,13.9705627 29.9705627,18 25,18 Z M25,16 C28.8659932,16 32,12.8659932 32,9 C32,5.13400675 28.8659932,2 25,2 C21.1340068,2 18,5.13400675 18,9 C18,12.8659932 21.1340068,16 25,16 Z" id="Oval-4" fill="#000000" fill-rule="nonzero"></path>
                    <path d="M28.8,10.75 C28.8,12.1399811 27.6836778,13.2728093 26.3,13.2995178 L26.3,13.5 C26.3,13.9416854 25.9416854,14.3 25.5,14.3 C25.0583146,14.3 24.7,13.9416854 24.7,13.5 L24.7,13.3 L24.3,13.3 L24.3,13.5 C24.3,13.9416854 23.9416854,14.3 23.5,14.3 C23.0583146,14.3 22.7,13.9416854 22.7,13.5 L22.7,13.3 L22.5,13.3 C22.0583146,13.3 21.7,12.9416854 21.7,12.5 L21.7,5.5 C21.7,5.05831458 22.0583146,4.7 22.5,4.7 L22.7,4.7 L22.7,4.5 C22.7,4.05831458 23.0583146,3.7 23.5,3.7 C23.9416854,3.7 24.3,4.05831458 24.3,4.5 L24.3,4.7 L24.7,4.7 L24.7,4.5 C24.7,4.05831458 25.0583146,3.7 25.5,3.7 C25.9416854,3.7 26.3,4.05831458 26.3,4.5 L26.3,4.77102039 C27.4512089,5.02445335 28.3,6.04397343 28.3,7.25 C28.3,7.79633545 28.1249763,8.31579268 27.8106417,8.74574306 C28.4252753,9.22246926 28.8,9.95268418 28.8,10.75 Z M23.3,8.2 L25.75,8.2 C26.2733146,8.2 26.7,7.77331458 26.7,7.25 C26.7,6.72668542 26.2733146,6.3 25.75,6.3 L23.3,6.3 L23.3,8.2 Z M26.25,11.7 C26.7733146,11.7 27.2,11.2733146 27.2,10.75 C27.2,10.2266854 26.7733146,9.8 26.25,9.8 L23.3,9.8 L23.3,11.7 L26.25,11.7 Z" id="Combined-Shape" fill="#000000"></path>
                </g>
            </g>
        </g>
    </g>
</svg>