<?xml version="1.0" encoding="UTF-8"?>
<svg width="43px" height="49px" viewBox="0 0 43 49" version="1.1" xmlns="http://www.w3.org/2000/svg" xmlns:xlink="http://www.w3.org/1999/xlink">
    <!-- Generator: Sketch 47.1 (45422) - http://www.bohemiancoding.com/sketch -->
    <title>Group 10</title>
    <desc>Created with Sketch.</desc>
    <defs></defs>
    <g id="Page-1" stroke="none" stroke-width="1" fill="none" fill-rule="evenodd">
        <g id="buy-crypto-1440-copy-7" transform="translate(-812.000000, -738.000000)">
            <g id="Group-13-Copy-2" transform="translate(812.000000, 734.000000)">
                <g id="Group-10" transform="translate(0.000000, 5.000000)">
                    <g id="wallet-(1)" transform="translate(0.142857, 5.244898)" fill-rule="nonzero" fill="#000000">
                        <path d="M40.4244731,16.0319087 L39.4057377,16.0319087 L39.4057377,9.91071429 C39.4057377,7.40778689 37.368267,5.37909836 34.8741218,5.37909836 L33.9344262,5.37909836 L33.9432084,3.1045082 C33.9432084,1.41832553 32.573185,0.0483021077 30.8870023,0.0483021077 L3.71487119,0.0483021077 C1.68618267,0.0483021077 0.0263466042,1.68179157 0,3.71048009 C0,3.7280445 0,3.7456089 0,3.7631733 L0,33.7456089 C0,35.4317916 1.37002342,36.801815 3.05620609,36.801815 L34.882904,36.801815 C37.3858314,36.801815 39.4145199,34.7643443 39.4145199,32.2701991 L39.4145199,26.1402225 L40.4332553,26.1402225 C41.7505855,26.1402225 42.8220141,25.0687939 42.8220141,23.7514637 L42.8220141,18.4206674 C42.8132319,17.1033372 41.7418033,16.0319087 40.4244731,16.0319087 Z M3.71487119,2.15603044 L30.8870023,2.15603044 C31.4051522,2.15603044 31.8354801,2.57757611 31.8354801,3.095726 L31.8266979,5.37909836 L3.71487119,5.37909836 C2.82786885,5.37909836 2.10772834,4.65895785 2.10772834,3.7719555 C2.10772834,2.88495316 2.82786885,2.15603044 3.71487119,2.15603044 Z M37.2980094,32.2614169 C37.2980094,33.5963115 36.2090164,34.6853044 34.8741218,34.6853044 L3.04742389,34.6853044 C2.529274,34.6853044 2.09894614,34.2637588 2.09894614,33.7368267 L2.09894614,7.11797424 C2.59074941,7.35509368 3.1352459,7.4868267 3.71487119,7.4868267 L34.8741218,7.4868267 C36.2090164,7.4868267 37.2980094,8.57581967 37.2980094,9.91071429 L37.2980094,16.0319087 L30.1053864,16.0319087 C28.7880562,16.0319087 27.7166276,17.1033372 27.7166276,18.4206674 L27.7166276,23.7514637 C27.7166276,25.0687939 28.7880562,26.1402225 30.1053864,26.1402225 L37.2980094,26.1402225 L37.2980094,32.2614169 Z M40.7055035,23.7514637 C40.7055035,23.9095433 40.5825527,24.0324941 40.4244731,24.0324941 L30.1141686,24.0324941 C29.956089,24.0324941 29.8331382,23.9095433 29.8331382,23.7514637 L29.8331382,18.4206674 C29.8331382,18.27137 29.956089,18.139637 30.1141686,18.139637 L40.4244731,18.139637 C40.5737705,18.139637 40.7055035,18.2625878 40.7055035,18.4206674 L40.7055035,23.7514637 L40.7055035,23.7514637 Z" id="Shape"></path>
                    </g>
                    <rect id="Rectangle-7" fill="#000000" x="2" y="46" width="23" height="2" rx="1"></rect>
                    <rect id="Rectangle-7-Copy-3" fill="#000000" x="27" y="46" width="10" height="2" rx="1"></rect>
                    <polygon id="Path-4" fill="#DBE6FF" points="6 11 24 0 30 11"></polygon>
                    <polyline id="Path-4" stroke="#000000" stroke-width="2" stroke-linecap="round" stroke-linejoin="round" points="5 11 24 0 30 11"></polyline>
                </g>
            </g>
        </g>
    </g>
</svg>